<svg xmlns="http://www.w3.org/2000/svg" viewBox="0 0 500 500">
  <g id="freepik--background-complete--inject-86">
    <rect y="382.4" width="500" height="0.25" style="fill:#e0e0e0"></rect>
    <rect x="161.85" y="388.44" width="10.48" height="0.25" style="fill:#e0e0e0"></rect>
    <rect x="428.25" y="395" width="37.94" height="0.25" style="fill:#e0e0e0"></rect>
    <rect x="317.34" y="388.56" width="30.66" height="0.25" style="fill:#e0e0e0"></rect>
    <rect x="189.11" y="394.26" width="53.36" height="0.25" style="fill:#e0e0e0"></rect>
    <rect x="121.33" y="392.68" width="18.34" height="0.25" style="fill:#e0e0e0"></rect>
    <rect x="408.16" y="395" width="15.26" height="0.25" style="fill:#e0e0e0"></rect>
    <rect x="64.93" y="392.56" width="50.57" height="0.25" style="fill:#e0e0e0"></rect>
    <path
      d="M237,337.8H43.91a5.71,5.71,0,0,1-5.7-5.71V60.66A5.71,5.71,0,0,1,43.91,55H237a5.71,5.71,0,0,1,5.71,5.71V332.09A5.71,5.71,0,0,1,237,337.8ZM43.91,55.2a5.46,5.46,0,0,0-5.45,5.46V332.09a5.46,5.46,0,0,0,5.45,5.46H237a5.47,5.47,0,0,0,5.46-5.46V60.66A5.47,5.47,0,0,0,237,55.2Z"
      style="fill:#e0e0e0"></path>
    <path
      d="M453.31,337.8H260.21a5.72,5.72,0,0,1-5.71-5.71V60.66A5.72,5.72,0,0,1,260.21,55h193.1A5.71,5.71,0,0,1,459,60.66V332.09A5.71,5.71,0,0,1,453.31,337.8ZM260.21,55.2a5.47,5.47,0,0,0-5.46,5.46V332.09a5.47,5.47,0,0,0,5.46,5.46h193.1a5.47,5.47,0,0,0,5.46-5.46V60.66a5.47,5.47,0,0,0-5.46-5.46Z"
      style="fill:#e0e0e0"></path>
    <rect x="74.11" y="118.11" width="119.56" height="264.41" style="fill:#e6e6e6"></rect>
    <rect x="79.78" y="118.11" width="113.89" height="264.41" style="fill:#f5f5f5"></rect>
    <rect x="10.52" y="199.37" width="252.41" height="101.89"
      transform="translate(387.04 113.6) rotate(90)" style="fill:#f0f0f0"></rect>
    <rect x="60.68" y="249.54" width="252.41" height="1.56"
      transform="translate(437.21 63.43) rotate(90)" style="fill:#e6e6e6"></rect>
    <circle cx="174.06" cy="239.39" r="5.11" style="fill:#e6e6e6"></circle>
    <circle cx="176.06" cy="238.33" r="5.11" style="fill:#fafafa"></circle>
    <rect x="364.32" y="89.94" width="80.93" height="152.02" style="fill:#e0e0e0"></rect>
    <rect x="367.78" y="89.94" width="80.93" height="152.02" style="fill:#f5f5f5"></rect>
    <rect x="338.92" y="131.69" width="138.64" height="68.52"
      transform="translate(574.19 -242.29) rotate(90)" style="fill:#fafafa"></rect>
    <rect x="371.88" y="164.64" width="138.64" height="2.61"
      transform="translate(607.15 -275.25) rotate(90)" style="fill:#e0e0e0"></rect>
    <rect x="370.35" y="195.12" width="75.8" height="8.98" style="fill:#f5f5f5"></rect>
    <rect x="264.53" y="89.94" width="80.93" height="152.02" style="fill:#e0e0e0"></rect>
    <rect x="267.98" y="89.94" width="80.93" height="152.02" style="fill:#f5f5f5"></rect>
    <rect x="239.12" y="131.69" width="138.64" height="68.52"
      transform="translate(474.4 -142.5) rotate(90)" style="fill:#fafafa"></rect>
    <rect x="272.08" y="164.64" width="138.64" height="2.61"
      transform="translate(507.35 -175.45) rotate(90)" style="fill:#e0e0e0"></rect>
    <rect x="270.55" y="195.12" width="75.8" height="8.98" style="fill:#f5f5f5"></rect>
    <polygon points="159.5 106.48 158.59 107.39 113.94 107.39 113.94 89.94 159.5 106.48"
      style="fill:#e0e0e0"></polygon>
    <polygon points="115.67 106.48 159.5 106.48 157.78 89.94 113.94 89.94 115.67 106.48"
      style="fill:#f5f5f5"></polygon>
    <rect x="205.3" y="229.94" width="18.9" height="18.9"
      transform="translate(429.49 478.78) rotate(180)" style="fill:#ebebeb"></rect>
    <rect x="204.66" y="229.94" width="0.64" height="18.9" style="fill:#e0e0e0"></rect>
    <polygon points="222.43 245.24 221.75 245.92 207.69 245.92 207.69 232.96 222.43 245.24"
      style="fill:#e0e0e0"></polygon>
    <polygon points="208.97 245.24 222.43 245.24 221.16 232.96 207.69 232.96 208.97 245.24"
      style="fill:#fafafa"></polygon>
    <polygon
      points="232.29 273.61 241.79 265.03 251.28 273.61 251.28 382.65 232.29 382.65 232.29 273.61"
      style="fill:#f0f0f0"></polygon>
    <polygon
      points="265.2 273.61 274.69 265.03 284.19 273.61 284.19 382.65 265.2 382.65 265.2 273.61"
      style="fill:#f0f0f0"></polygon>
    <polygon
      points="298.1 273.61 307.6 265.03 317.09 273.61 317.09 382.65 298.1 382.65 298.1 273.61"
      style="fill:#f0f0f0"></polygon>
    <polygon
      points="331.01 273.61 340.5 265.03 349.99 273.61 349.99 382.65 331.01 382.65 331.01 273.61"
      style="fill:#f0f0f0"></polygon>
    <polygon
      points="363.91 273.61 373.41 265.03 382.9 273.61 382.9 382.65 363.91 382.65 363.91 273.61"
      style="fill:#f0f0f0"></polygon>
    <polygon
      points="396.82 273.61 406.31 265.03 415.8 273.61 415.8 382.65 396.82 382.65 396.82 273.61"
      style="fill:#f0f0f0"></polygon>
    <polygon
      points="429.72 273.61 439.22 265.03 448.71 273.61 448.71 382.65 429.72 382.65 429.72 273.61"
      style="fill:#f0f0f0"></polygon>
    <rect x="241.79" y="289.48" width="197.43" height="4.84"
      transform="translate(681 583.79) rotate(180)" style="fill:#f0f0f0"></rect>
    <rect x="241.79" y="346.76" width="197.43" height="4.84"
      transform="translate(681 698.35) rotate(180)" style="fill:#f0f0f0"></rect>
  </g>
  <g id="freepik--Shadow--inject-86">
    <ellipse cx="250" cy="416.24" rx="193.89" ry="11.32" style="fill:#f5f5f5"></ellipse>
  </g>
  <g id="freepik--Graphics--inject-86">
    <path
      d="M123.53,157a95.27,95.27,0,0,1,67.59-28h13.53s63.83,16.71,63.83,85.09c0,66.84-44.19,126-63.82,145.66H191.14l-67.61-67.61A95.6,95.6,0,0,1,123.53,157Zm67.6,112a44.38,44.38,0,1,0-44.38-44.37A44.38,44.38,0,0,0,191.13,268.92Z"
      style="fill:#001f54"></path>
    <path
      d="M274,155.19a100.32,100.32,0,0,0-12.8-10.81l.57-.82a101,101,0,0,1,12.94,10.93Zm-18.78-14.72c-2.35-1.42-4.79-2.76-7.24-4l.44-.9c2.48,1.23,4.94,2.58,7.32,4Z"
      style="fill:#034078"></path>
    <path
      d="M274,155.19a100.32,100.32,0,0,0-12.8-10.81l.57-.82a101,101,0,0,1,12.94,10.93Zm-18.78-14.72c-2.35-1.42-4.79-2.76-7.24-4l.44-.9c2.48,1.23,4.94,2.58,7.32,4Z"
      style="opacity:0.2"></path>
    <path
      d="M137.05,157A95.59,95.59,0,0,1,272.23,292.14l-67.57,67.58-67.61-67.61A95.58,95.58,0,0,1,137.05,157Zm67.6,112a44.38,44.38,0,1,0-44.38-44.37A44.38,44.38,0,0,0,204.65,268.92Z"
      style="fill:#034078"></path>
    <path
      d="M137.05,157A95.59,95.59,0,0,1,272.23,292.14l-67.57,67.58-67.61-67.61A95.58,95.58,0,0,1,137.05,157Zm67.6,112a44.38,44.38,0,1,0-44.38-44.37A44.38,44.38,0,0,0,204.65,268.92Z"
      style="opacity:0.2"></path>
    <path
      d="M204.66,354.31a.25.25,0,0,1-.18-.08L139.7,289.46a91.82,91.82,0,1,1,129.88,0l-64.75,64.74A.23.23,0,0,1,204.66,354.31Zm0-221.09a91.32,91.32,0,0,0-64.56,155.89l64.6,64.59,64.57-64.56.17.17-.17-.17a91.35,91.35,0,0,0-64.61-155.92Zm0,140a48.63,48.63,0,1,1,48.63-48.62A48.68,48.68,0,0,1,204.65,273.17Zm0-96.75a48.13,48.13,0,1,0,48.13,48.13A48.18,48.18,0,0,0,204.65,176.42Z"
      style="fill:#fafafa;opacity:0.4;mix-blend-mode:color-dodge"></path>
  </g>
</svg>